<?xml version="1.0" encoding="utf-8"?>
<!-- Generator: Adobe Illustrator 18.1.1, SVG Export Plug-In . SVG Version: 6.00 Build 0)  -->
<!DOCTYPE svg PUBLIC "-//W3C//DTD SVG 1.1//EN" "http://www.w3.org/Graphics/SVG/1.1/DTD/svg11.dtd">
<svg version="1.1" id="Layer_1" xmlns="http://www.w3.org/2000/svg" xmlns:xlink="http://www.w3.org/1999/xlink" x="0px" y="0px"
	 viewBox="0 0 300 300" enable-background="new 0 0 300 300" xml:space="preserve">
<rect fill="#C7C8C8" width="300" height="300"/>
<g>
	<path fill="#8C8D8E" d="M146.8,275.9c-39.9,0-79.9,0-119.8,0c-11.4,0-12-0.9-7.9-11.8c6.1-15.9,18.9-26.1,32.3-35.2
		c18.3-12.5,38.1-22.2,59.6-28.2c9.6-2.7,13.5-14,7.3-21.7c-8.7-10.6-15.5-22.1-18.7-35.6c-0.6-2.5-2.1-3.8-3.8-5.3
		c-10.7-9.4-13-20.6-6.5-33.6c2.1-4.2,2.4-8.1,1.6-12.4c-2.3-12-0.6-23.7,2.9-35.1c5.8-19.1,19.7-29.6,38.8-32
		c20.2-2.6,40.4-2.7,56.9,12.5c10.6,9.8,14.7,22.4,15.3,36.4c0.5,12.7-1,25.3,3.6,37.9c3.5,9.6,0.9,19.7-8.4,26.3
		c-2.4,1.7-3.5,3.8-4.1,6.3c-3.2,12.7-9.9,23.6-17.8,33.9c-7,9.3-3.5,19.3,7.3,22.7c29.6,9.3,56.8,23,79.2,44.9
		c5.7,5.6,9.9,12.3,12.4,20c2.4,7,1,10.1-7.3,10.1C228.6,275.8,187.7,275.9,146.8,275.9z"/>
</g>
</svg>
