<?xml version="1.0" encoding="utf-8"?>
<!-- Generator: Adobe Illustrator 18.1.1, SVG Export Plug-In . SVG Version: 6.00 Build 0)  -->
<!DOCTYPE svg PUBLIC "-//W3C//DTD SVG 1.1//EN" "http://www.w3.org/Graphics/SVG/1.1/DTD/svg11.dtd">
<svg version="1.1" id="Layer_1" xmlns="http://www.w3.org/2000/svg" xmlns:xlink="http://www.w3.org/1999/xlink" x="0px" y="0px"
	 viewBox="-258.8 212.6 62.8 49.8" enable-background="new -258.8 212.6 62.8 49.8" xml:space="preserve">
<g>
	<polygon fill="#92CB55" points="-247.9,220.9 -196.4,220.9 -198.7,225.6 -245.6,225.6 	"/>
	<polygon fill="#92CB55" points="-244,229.1 -200.3,229.1 -202.4,234.1 -241.9,234.1 	"/>
	<polygon fill="#92CB55" points="-240.3,237.5 -204,237.5 -206,242.3 -238.1,242.3 	"/>
	<circle fill="#92CB55" cx="-237.8" cy="257.4" r="4.6"/>
	<circle fill="#92CB55" cx="-212.3" cy="257.4" r="4.6"/>
	<path fill="#92CB55" d="M-207.8,245.5h-32.9l-13.2-30.8c0-0.2-0.1-0.3-0.2-0.4l0,0l0,0c-0.4-0.7-1.1-1.2-2-1.2
		c-1.3,0-2.3,1-2.3,2.3c0,0.3,0.1,0.6,0.2,0.9l0,0l0,0c0,0,0,0,0,0l13.9,32.3c0,0.1,0.1,0.2,0.2,0.4l0,0l0,0c0.4,0.7,1.1,1.2,2,1.2
		c0,0,0.1,0,0.1,0l0,0h34.2c1.3,0,2.3-1,2.3-2.3C-205.5,246.5-206.5,245.5-207.8,245.5z"/>
</g>
</svg>
