<?xml version="1.0" encoding="utf-8"?>
<!-- Generator: Adobe Illustrator 18.1.1, SVG Export Plug-In . SVG Version: 6.00 Build 0)  -->
<!DOCTYPE svg PUBLIC "-//W3C//DTD SVG 1.1//EN" "http://www.w3.org/Graphics/SVG/1.1/DTD/svg11.dtd">
<svg version="1.1" id="Layer_1" xmlns="http://www.w3.org/2000/svg" xmlns:xlink="http://www.w3.org/1999/xlink" x="0px" y="0px"
	 viewBox="0 0 476 184" enable-background="new 0 0 476 184" xml:space="preserve">
<path fill="#82C343" d="M141.5,83.5c4.7,0,9.2,0.8,13.4,2.2c0.1-0.3,0.2-0.6,0.2-1l0.7-4.2L166,23.3c1.7-9.9-4.9-17.9-14.8-17.9
	H38.5c-9.9,0-19.4,8-21.1,17.9L6.5,84.7c-1.7,9.9,4.9,17.9,14.8,17.9h4.6L17,132.3l26.4-29.7h31.3h32.1
	C114,91.1,126.8,83.5,141.5,83.5z"/>
<path fill="#16994B" d="M154.9,85.7c-4.2-1.4-8.7-2.2-13.4-2.2c-14.7,0-27.5,7.7-34.9,19.2H134C143.6,102.7,152.7,95.1,154.9,85.7z"
	/>
<path fill="#125566" d="M174.6,103.2c0.3,0.5,0.6,1,0.9,1.5C175.2,104.2,174.9,103.7,174.6,103.2z"/>
<path fill="#125566" d="M182.8,124.8c0-7.1-1.8-13.7-4.9-19.5c-0.1-0.1-0.2-0.3-0.2-0.4c-0.3-0.5-0.6-1-0.9-1.5
	c-5-8.2-12.7-14.5-21.9-17.7c-2.2,9.5-11.3,17-20.9,17h-27.4c-2.2,3.4-3.9,7.2-4.9,11.1c-1,3.5-1.5,7.2-1.5,11
	c0,22.8,18.5,41.3,41.3,41.3c4,0,7.8-0.6,11.5-1.6l10.9,15.3l-2.3-18.9C174.3,153.9,182.8,140.3,182.8,124.8z"/>
<g>
	<path fill="#82C343" d="M229,143.5c6,0,9.4-2.4,10.2-7.2c0.4-2.5-0.6-4.3-3-5.5c-1.3-0.7-3-1.3-5.1-1.9c-2.1-0.6-3.8-1.2-5.2-1.8
		c-1.4-0.6-2.7-1.5-4-2.6c-2.6-2.2-3.4-5.6-2.6-10.1c0.8-4.6,3-8.1,6.6-10.8c3.6-2.6,8-3.9,13.1-3.9c5.1,0,9.7,1,13.7,3.1l-2,11.2
		l-7.7,0.5l0.8-4.3c0.1-0.7,0.1-1.3,0-1.6c-0.4-0.9-2.1-1.4-5-1.4c-3,0-5.2,0.5-6.9,1.6c-1.6,1-2.6,2.7-3,4.9
		c-0.3,1.6,0.1,3,1.1,4.2c0.7,0.8,1.7,1.5,3.2,2c1.5,0.5,3.1,1.1,4.7,1.6c1.7,0.5,3.1,1.1,4.4,1.8c1.3,0.6,2.5,1.5,3.8,2.7
		c2.6,2.2,3.6,5.7,2.7,10.4c-0.8,4.7-3.2,8.4-7,11.1c-3.8,2.7-8.5,4-14,4c-5.5,0-10.3-1-14.3-3.1l2.1-11.8l7.7-0.5l-0.8,4.6
		c-0.1,0.7-0.1,1.3,0,1.6c0.1,0.3,0.7,0.7,1.7,1C225.3,143.3,226.8,143.5,229,143.5z"/>
	<path fill="#82C343" d="M276.9,111.5c3.7,0,6.5,0.9,8.4,2.7c1.9,1.8,2.5,4.4,1.9,7.7c-0.4,2.2-1.2,4.1-2.4,5.8
		c-1.2,1.7-2.6,3-4.2,3.9c-1.6,0.9-3.4,1.7-5.5,2.3c-3.5,1-7.4,1.5-11.5,1.5c-0.3,2.6,0.1,4.8,1.3,6.4c1.2,1.6,3.4,2.4,6.4,2.4
		c3.1,0,6.4-1.1,9.8-3.3l1.8,6.1c-1.2,0.9-3,1.8-5.5,2.8s-5.3,1.4-8.4,1.4c-6.1,0-10.2-1.7-12.5-5c-2.2-3.4-2.9-8-1.8-13.9
		c1-5.9,3.5-10.8,7.5-14.8C266.2,113.5,271.1,111.5,276.9,111.5z M270.5,128.6c1.9-0.3,3.7-1,5.4-2.2s2.7-2.5,3-4
		c0.5-3-0.7-4.6-3.7-4.6c-2.8,0-5.1,1.1-7,3.3c-1.9,2.2-3.2,4.9-3.9,8C266.6,129.1,268.6,128.9,270.5,128.6z"/>
	<path fill="#82C343" d="M310.2,97l-8.3,47.1l4.2,0.2l-1.1,6h-17.8l1-5.7l2.5-0.2c1.5-0.1,2.3-0.9,2.6-2.4l6.5-36.8
		c0.2-1.1-0.3-1.7-1.6-1.8l-2.6-0.1l1.1-6.2H310.2z"/>
	<path fill="#82C343" d="M332.5,97l-8.3,47.1l4.2,0.2l-1.1,6h-17.8l1-5.7l2.5-0.2c1.5-0.1,2.3-0.9,2.6-2.4l6.5-36.8
		c0.2-1.1-0.3-1.7-1.6-1.8l-2.6-0.1l1.1-6.2H332.5z"/>
	<path fill="#82C343" d="M352.1,112.6l-5.5,31.4l4.2,0.2l-1.1,6H332l1-5.7l2.5-0.2c1.5-0.1,2.3-0.9,2.6-2.4l3.7-20.8
		c0.1-0.8,0.1-1.4-0.1-1.7c-0.2-0.3-0.7-0.4-1.4-0.4l-2.6-0.1l1.1-6.2H352.1z M343.9,106.2c-0.9-1-1.2-2.3-0.9-3.9
		c0.3-1.6,1-2.9,2.3-4c1.2-1.1,2.7-1.6,4.4-1.6c1.7,0,3,0.5,3.9,1.6c0.9,1.1,1.2,2.4,0.9,4c-0.3,1.6-1,2.9-2.3,3.9
		c-1.3,1-2.7,1.5-4.4,1.5C346,107.7,344.7,107.2,343.9,106.2z"/>
	<path fill="#82C343" d="M359.2,118.6l1.1-6h12.6l-0.9,4.9c1.6-1.8,3.6-3.3,5.9-4.4c2.3-1.1,4.7-1.6,7.2-1.6c3.8,0,6.5,1.1,8.2,3.2
		c1.7,2.2,2.1,5.4,1.4,9.8l-3.4,19.5l4.2,0.2l-1.1,6h-17.8l1-5.7l2.5-0.2c0.8-0.1,1.3-0.3,1.8-0.6c0.4-0.3,0.7-0.9,0.8-1.8l2.7-15.4
		c0.5-2.7,0.4-4.8-0.2-6.1c-0.6-1.3-2.1-2-4.5-2c-2.4,0-4.4,0.7-6,2.2c-1.7,1.5-2.7,3.3-3,5.3l-3.2,18.1l4.2,0.2l-1.1,6H354l1-5.7
		l2.5-0.2c0.8-0.1,1.3-0.3,1.8-0.6c0.4-0.3,0.7-0.9,0.8-1.8l3.6-20.7c0.3-1.5-0.2-2.3-1.5-2.3L359.2,118.6z"/>
	<path fill="#82C343" d="M425.3,162.3c-3.2,2.6-7.7,3.9-13.5,3.9s-10.2-0.8-13.2-2.5l1.8-10.4l7.2-0.6l-0.6,3.6
		c-0.2,1.3,0.2,2.3,1.4,2.7c1.2,0.5,2.8,0.7,5,0.7c3.2,0,5.6-1,7.2-2.9c1.6-1.9,2.8-4.6,3.4-8.1l0.7-4.1c-2.9,2.8-6.4,4.2-10.7,4.2
		c-2.6,0-4.8-0.5-6.6-1.5c-1.8-1-3.1-2.3-3.9-4c-1.5-3.4-1.9-7.4-1.1-12c1.2-6.5,3.8-11.5,7.9-14.8c4.1-3.4,9.1-5,15-5
		c4.9,0,9.3,0.9,13.3,2.8l-4.9,27.7c-0.7,4.2-1.3,6.9-1.6,8.1C430.8,155.7,428.5,159.7,425.3,162.3z M426.3,135l2.8-16.1
		c-1.6-0.6-3.6-0.9-5.8-0.9c-3,0-5.6,1.1-7.6,3.4c-2,2.2-3.4,5.3-4,9.1c-1.4,7.9,0.5,11.8,5.7,11.8c2.1,0,4.1-0.7,5.8-2
		C424.9,139,425.9,137.2,426.3,135z"/>
</g>
<g>
	<g>
		<path fill="#125566" d="M174.9,79.2l1.1-6.1l2.5-0.2c1.5-0.2,2.3-0.8,2.5-2.1l6.1-34.7l-4.2-0.2l1.1-6.4h21.4
			c5.6,0,9.7,1.3,12.3,3.9c2.7,2.6,3.5,6.5,2.6,11.8c-0.9,5.2-3.4,9.3-7.5,12.2c-4.1,2.9-9,4.4-14.8,4.4h-6.4l-1.9,10.8l7.1,0.2
			l-1.1,6.4H174.9z M193,54.5h5.4c7.3,0,11.4-3,12.5-8.9c0.6-3.6,0.1-6-1.5-7.1c-1.7-1.2-4.5-1.8-8.6-1.8h-4.6L193,54.5z"/>
		<path fill="#125566" d="M225.2,70.8l3.6-20.7c0.1-0.8,0.1-1.4-0.1-1.7c-0.2-0.3-0.7-0.5-1.4-0.6l-3.1-0.2l1.1-6.1H238l-1,5.6
			c1.2-1.9,2.9-3.5,5-4.8c2.1-1.3,4.4-1.9,6.9-1.9c2.5,0,4.7,0.5,6.8,1.6l-2,11.1l-7,0.5l0.6-3.4c0.2-1,0-1.6-0.4-1.9
			c-0.5-0.2-1.2-0.4-2-0.4c-2,0-3.7,0.7-5.3,2.1c-1.5,1.4-2.5,3.2-2.9,5.4L233.7,73l6.4,0.3l-1,5.9h-20l1-5.7l2.5-0.2
			c0.8-0.1,1.3-0.3,1.8-0.6C224.7,72.3,225,71.7,225.2,70.8z"/>
		<path fill="#125566" d="M279.2,40.5c3.7,0,6.5,0.9,8.4,2.7c1.9,1.8,2.5,4.4,1.9,7.7c-0.4,2.2-1.2,4.1-2.4,5.8
			c-1.2,1.7-2.6,3-4.2,3.9c-1.6,0.9-3.4,1.7-5.5,2.3c-3.5,1-7.4,1.5-11.5,1.5c-0.3,2.6,0.1,4.8,1.3,6.4c1.2,1.6,3.4,2.4,6.4,2.4
			c3.1,0,6.4-1.1,9.8-3.3l1.8,6.1c-1.2,0.9-3,1.8-5.5,2.8c-2.5,0.9-5.3,1.4-8.4,1.4c-6.1,0-10.2-1.7-12.5-5c-2.2-3.4-2.9-8-1.8-13.9
			c1-5.9,3.5-10.8,7.5-14.8C268.5,42.5,273.3,40.5,279.2,40.5z M272.8,57.6c1.9-0.3,3.7-1,5.4-2.2c1.7-1.1,2.7-2.5,3-4
			c0.5-3-0.7-4.6-3.7-4.6c-2.8,0-5.1,1.1-7,3.3c-1.9,2.2-3.2,4.9-3.9,8C268.8,58.1,270.9,57.9,272.8,57.6z"/>
		<path fill="#125566" d="M314.9,47.3c-1.1-0.4-2.5-0.7-4.2-0.7c-1.7,0-3.1,0.4-4.3,1.2c-1.2,0.8-1.8,1.7-2,2.8
			c-0.2,1.1-0.2,2,0.1,2.6c0.3,0.6,0.8,1.2,1.5,1.6c1.1,0.6,2.5,1.2,4.2,1.7c1.7,0.5,2.9,0.8,3.7,1.1c0.8,0.3,1.8,0.7,2.9,1.4
			c1.2,0.6,2,1.3,2.5,2.1c1.4,1.8,1.9,4.2,1.4,7.1c-0.7,3.7-2.5,6.7-5.6,8.8c-3.1,2.1-6.7,3.2-10.9,3.2c-6.1,0-10.5-0.8-13.3-2.3
			l1.8-10.4l6.8-0.5l-0.6,3.6c-0.4,2.2,1.5,3.3,5.7,3.3s6.5-1.5,7.1-4.6c0.2-1.1,0-2-0.6-2.7c-0.6-0.7-1.2-1.2-1.9-1.4
			c-0.7-0.2-1.4-0.5-2.4-0.7c-0.9-0.2-1.8-0.5-2.7-0.7c-0.9-0.2-1.8-0.6-2.8-1c-1-0.4-2.1-1-3.2-1.8c-2.3-1.6-3-4.4-2.4-8.3
			c0.7-3.9,2.6-6.8,5.7-8.9c3.1-2.1,6.7-3.1,10.9-3.1c4.2,0,8.1,1,11.8,3l-1.6,9l-6.8,0.5l0.6-3.1C316.4,48.6,316,47.7,314.9,47.3z"
			/>
		<path fill="#125566" d="M348.6,47.3c-1.1-0.4-2.5-0.7-4.2-0.7c-1.7,0-3.1,0.4-4.3,1.2c-1.2,0.8-1.8,1.7-2,2.8
			c-0.2,1.1-0.2,2,0.1,2.6c0.3,0.6,0.8,1.2,1.5,1.6c1.1,0.6,2.5,1.2,4.2,1.7c1.7,0.5,2.9,0.8,3.7,1.1c0.8,0.3,1.8,0.7,2.9,1.4
			c1.2,0.6,2,1.3,2.5,2.1c1.4,1.8,1.9,4.2,1.4,7.1c-0.7,3.7-2.5,6.7-5.6,8.8c-3.1,2.1-6.7,3.2-10.9,3.2c-6.1,0-10.5-0.8-13.3-2.3
			l1.8-10.4l6.8-0.5l-0.6,3.6c-0.4,2.2,1.5,3.3,5.7,3.3s6.5-1.5,7.1-4.6c0.2-1.1,0-2-0.6-2.7c-0.6-0.7-1.2-1.2-1.9-1.4
			c-0.7-0.2-1.4-0.5-2.4-0.7c-0.9-0.2-1.8-0.5-2.7-0.7c-0.9-0.2-1.8-0.6-2.8-1c-1-0.4-2.1-1-3.2-1.8c-2.3-1.6-3-4.4-2.4-8.3
			c0.7-3.9,2.6-6.8,5.7-8.9c3.1-2.1,6.7-3.1,10.9-3.1c4.2,0,8.1,1,11.8,3l-1.6,9l-6.8,0.5l0.6-3.1C350.1,48.6,349.7,47.7,348.6,47.3
			z"/>
		<path fill="#125566" d="M397,73.3l-1,5.9h-12.1l0.9-4.9c-3.4,3.9-7.8,5.8-13.1,5.8c-7.7,0-10.8-4.3-9.3-12.9l3-17.3
			c0.2-1.3-0.3-2-1.5-2.1l-2.4-0.1l1.1-6.1h13.1l-4.2,23.7c-0.5,2.6-0.4,4.6,0.1,6c0.5,1.3,1.9,2,4.3,2s4.3-0.7,6-2.2
			c1.7-1.4,2.7-3.2,3.1-5.2l2.8-15.8c0.1-0.8,0.1-1.4-0.1-1.7c-0.2-0.3-0.7-0.5-1.4-0.6l-2.4-0.1l1.1-6.1h13.1L393,70.9
			c-0.1,0.8-0.1,1.3,0.1,1.6c0.2,0.3,0.7,0.5,1.4,0.6L397,73.3z"/>
		<path fill="#125566" d="M406.6,70.8l3.6-20.7c0.1-0.8,0.1-1.4-0.1-1.7c-0.2-0.3-0.7-0.5-1.4-0.6l-3.1-0.2l1.1-6.1h12.6l-1,5.6
			c1.2-1.9,2.9-3.5,5-4.8c2.1-1.3,4.4-1.9,6.9-1.9c2.5,0,4.7,0.5,6.8,1.6l-2,11.1l-7,0.5l0.6-3.4c0.2-1,0-1.6-0.4-1.9
			c-0.5-0.2-1.2-0.4-2-0.4c-2,0-3.7,0.7-5.3,2.1c-1.5,1.4-2.5,3.2-2.9,5.4L415.2,73l6.4,0.3l-1,5.9h-20l1-5.7l2.5-0.2
			c0.8-0.1,1.3-0.3,1.8-0.6C406.2,72.3,406.5,71.7,406.6,70.8z"/>
		<path fill="#125566" d="M460.6,40.5c3.7,0,6.5,0.9,8.4,2.7c1.9,1.8,2.5,4.4,1.9,7.7c-0.4,2.2-1.2,4.1-2.4,5.8
			c-1.2,1.7-2.6,3-4.2,3.9c-1.6,0.9-3.4,1.7-5.5,2.3c-3.5,1-7.4,1.5-11.5,1.5c-0.3,2.6,0.1,4.8,1.3,6.4c1.2,1.6,3.4,2.4,6.4,2.4
			c3.1,0,6.4-1.1,9.8-3.3l1.8,6.1c-1.2,0.9-3,1.8-5.5,2.8c-2.5,0.9-5.3,1.4-8.4,1.4c-6.1,0-10.2-1.7-12.5-5c-2.2-3.4-2.9-8-1.8-13.9
			c1-5.9,3.5-10.8,7.5-14.8C449.9,42.5,454.8,40.5,460.6,40.5z M454.2,57.6c1.9-0.3,3.7-1,5.4-2.2c1.7-1.1,2.7-2.5,3-4
			c0.5-3-0.7-4.6-3.7-4.6c-2.8,0-5.1,1.1-7,3.3c-1.9,2.2-3.2,4.9-3.9,8C450.3,58.1,452.3,57.9,454.2,57.6z"/>
	</g>
</g>
<g id="Shape_1_9_">
	<g>
		<path fill-rule="evenodd" clip-rule="evenodd" fill="#82C343" d="M458.7,102.6L458.7,102.6c-6.5,0-11.6,4.9-11.6,11.1
			c0,6.2,5.1,11.2,11.5,11.2c6.4,0,11.4-5,11.4-11.2C470,107.5,465,102.6,458.7,102.6z M458.7,122.6c-5,0-8.7-3.9-8.7-8.9
			c0-4.9,3.7-8.9,8.6-8.9h0.1c4.9,0,8.6,4,8.6,9C467.1,118.7,463.5,122.7,458.7,122.6z M461.2,114.1V114c1.3-0.4,2.3-1.3,2.3-2.6
			c0-1.1-0.5-1.9-1.2-2.4c-0.7-0.5-1.7-0.9-3.8-0.9c-1.8,0-3.3,0.2-4.3,0.3v11.1h2.6v-4.4h1.2c1.4,0,2.1,0.5,2.3,1.7
			c0.3,1.4,0.5,2.3,0.9,2.7h2.7c-0.2-0.4-0.5-1-0.8-2.7C462.8,115.3,462.3,114.4,461.2,114.1z M458.1,113.3h-1.2v-3.2
			c0.3-0.1,0.7-0.1,1.4-0.1c1.6,0,2.4,0.7,2.4,1.7C460.7,112.8,459.5,113.3,458.1,113.3z"/>
	</g>
</g>
<g>
	<g>
		<path fill="#FFFFFF" d="M41.7,78.5l1.1-6.1l2.7-0.2c1.3-0.1,2.1-0.8,2.3-2.1l6.1-34.7l-4.2-0.2l1.1-6.4h13.4l15.1,34.3h0.1
			l4.9-27.7l-4.9-0.2l1.1-6.4h18.2l-1.1,6.1L95.1,35c-1.2,0.1-1.9,0.9-2.2,2.3l-7.2,41.1h-8.7L61.4,43.6h-0.1l-5,28.2l4.8,0.2
			L60,78.5H41.7z"/>
		<path fill="#FFFFFF" d="M96.3,59.6c0.6-3.7,1.8-6.9,3.3-9.6c1.6-2.7,3.4-4.8,5.5-6.2c4-2.7,8.2-4,12.4-4c3,0,5.4,0.5,7.3,1.5
			c1.9,1,3.3,2.1,4.3,3.4c0.9,1.3,1.6,3.1,2,5.5c0.4,2.4,0.3,5.3-0.3,8.6c-1.2,6.9-3.8,12.1-7.8,15.6c-4,3.5-8.5,5.3-13.7,5.3
			c-5.2,0-9-1.7-11.3-5C95.7,71.2,95.1,66.2,96.3,59.6z M111.1,73c5.4,0,8.9-4.4,10.5-13.1c0.8-4.4,0.8-7.8-0.1-10.1
			c-0.8-2.3-2.7-3.4-5.5-3.4c-2.9,0-5.2,1.1-6.9,3.3c-1.7,2.2-2.9,5.2-3.6,9c-1.2,7-0.7,11.4,1.6,13.2C108,72.6,109.4,73,111.1,73z"
			/>
	</g>
</g>
</svg>
