<?xml version="1.0" encoding="utf-8"?>
<!-- Generator: Adobe Illustrator 18.1.1, SVG Export Plug-In . SVG Version: 6.00 Build 0)  -->
<!DOCTYPE svg PUBLIC "-//W3C//DTD SVG 1.1//EN" "http://www.w3.org/Graphics/SVG/1.1/DTD/svg11.dtd">
<svg version="1.1" id="Layer_1" xmlns="http://www.w3.org/2000/svg" xmlns:xlink="http://www.w3.org/1999/xlink" x="0px" y="0px"
	 viewBox="0 0 188 184" enable-background="new 0 0 188 184" xml:space="preserve">
<path fill="#82C343" d="M141.5,83.5c4.7,0,9.2,0.8,13.4,2.2c0.1-0.3,0.2-0.6,0.2-1l0.7-4.2L166,23.3c1.7-9.9-4.9-17.9-14.8-17.9
	H38.5c-9.9,0-19.4,8-21.1,17.9L6.5,84.7c-1.7,9.9,4.9,17.9,14.8,17.9h4.6L17,132.3l26.4-29.7h31.3h32.1
	C114,91.1,126.8,83.5,141.5,83.5z"/>
<path fill="#16994B" d="M154.9,85.7c-4.2-1.4-8.7-2.2-13.4-2.2c-14.7,0-27.5,7.7-34.9,19.2H134C143.6,102.7,152.7,95.1,154.9,85.7z"
	/>
<path fill="#125566" d="M174.6,103.2c0.3,0.5,0.6,1,0.9,1.5C175.2,104.2,174.9,103.7,174.6,103.2z"/>
<path fill="#125566" d="M182.8,124.8c0-7.1-1.8-13.7-4.9-19.5c-0.1-0.1-0.2-0.3-0.2-0.4c-0.3-0.5-0.6-1-0.9-1.5
	c-5-8.2-12.7-14.5-21.9-17.7c-2.2,9.5-11.3,17-20.9,17h-27.4c-2.2,3.4-3.9,7.2-4.9,11.1c-1,3.5-1.5,7.2-1.5,11
	c0,22.8,18.5,41.3,41.3,41.3c4,0,7.8-0.6,11.5-1.6l10.9,15.3l-2.3-18.9C174.3,153.9,182.8,140.3,182.8,124.8z"/>
</svg>
