<?xml version="1.0" encoding="utf-8"?>
<!-- Generator: Adobe Illustrator 18.1.1, SVG Export Plug-In . SVG Version: 6.00 Build 0)  -->
<!DOCTYPE svg PUBLIC "-//W3C//DTD SVG 1.1//EN" "http://www.w3.org/Graphics/SVG/1.1/DTD/svg11.dtd">
<svg version="1.1" id="Layer_1" xmlns="http://www.w3.org/2000/svg" xmlns:xlink="http://www.w3.org/1999/xlink" x="0px" y="0px"
	 viewBox="0 0 367 327" enable-background="new 0 0 367 327" xml:space="preserve">
<g>
	<g>
		<path fill="#81C344" d="M30.8,142.2L69,121.9V99c0,0-64.5-19.2-1.4-78.5l-12.3-15C55.3,5.4-38.9,71.8,30.8,142.2z"/>
		<path fill="#81C344" d="M114.6,142.2l38.4-20.3V99c0,0-64.7-19.2-1.7-78.5L139,5.4C139,5.4,44.8,71.8,114.6,142.2z"/>
	</g>
	<g>
		<path fill="#81C344" d="M333.8,182.5L296,202.8v23c0,0,64.1,19.2,1.1,78.5l12.3,15C309.4,319.3,403.6,252.9,333.8,182.5z"/>
		<path fill="#81C344" d="M250,182.5l-38,20.3v23c0,0,64.4,19.2,1.3,78.5l12.3,15C225.6,319.3,319.8,252.9,250,182.5z"/>
	</g>
	<g>
		
			<rect x="162.8" y="-3.5" transform="matrix(0.7136 0.7006 -0.7006 0.7136 168.1027 -68.4573)" fill="#D0D2D4" width="10" height="349.7"/>
	</g>
</g>
</svg>
